<svg width="750" height="750" viewBox="0 0 750 750" fill="none" xmlns="http://www.w3.org/2000/svg">
<path d="M74.9463 425.314L126.738 422.175V523.267L74.9463 551.067V425.314Z" fill="#00B8FF"/>
<path d="M74.9463 551.067L126.106 522.003C126.106 522.003 241.958 588.891 243.087 590.829C244.216 592.767 217.191 635.698 217.191 635.698L74.9463 551.067Z" fill="#00B8FF"/>
<path d="M169.687 339.05L220.215 309.71V524.53L169.687 497.994V339.05Z" fill="#00B8FF"/>
<path d="M190.048 327.265L215.313 371.039L74.9463 452.502L74.9463 393.743L190.048 327.265Z" fill="#00B8FF"/>
<path d="M279.942 539.694L305.838 584.563L217.057 635.732L192.424 590.24L279.942 539.694Z" fill="#00B8FF"/>
<path d="M260.637 551.699L312.429 519.476V695.755L260.637 666.691V551.699Z" fill="#00B8FF"/>
<path d="M435.591 578.236L486.37 604.499L485.86 668.859L435.591 697.923V578.236Z" fill="#00B8FF"/>
<path d="M347.799 470.194H399.59V612.986H347.799V470.194Z" fill="#00B8FF"/>
<path d="M373.694 630.993L399.59 612.986H347.799L373.694 630.993Z" fill="#00B8FF"/>
<path d="M307.445 414.593L307.445 474.69L220.215 524.53L196.332 479.039L307.445 414.593Z" fill="#00B8FF"/>
<path d="M307.431 474.688L307.431 414.593L402.748 471.457L347.799 497.994L307.431 474.688Z" fill="#00B8FF"/>
<path d="M431.753 420.771L483.778 450.819L372.431 514.857L346.535 469.989L431.753 420.771Z" fill="#00B8FF"/>
<path d="M372.549 734.937L372.549 674.84L457.766 625.622L483.662 670.491L372.549 734.937Z" fill="#00B8FF"/>
<path d="M373.221 674.905L373.22 735L279.703 676.811L305.599 631.943L373.221 674.905Z" fill="#00B8FF"/>
<path d="M573.755 594.346L545.141 551.047L632.658 500.502L682.621 531.47L573.755 594.346Z" fill="#00B8FF"/>
<path d="M682.621 531.47L631.88 501.681C631.88 501.681 631.861 367.87 632.974 365.923C634.088 363.976 684.766 365.923 684.766 365.923L682.621 531.47Z" fill="#00B8FF"/>
<path d="M451.704 555.402L401.039 526.298L587.014 418.888L589.305 475.93L451.704 555.402Z" fill="#00B8FF"/>
<path d="M431.32 543.654L456.584 499.88L597.292 580.752L546.422 610.132L431.32 543.654Z" fill="#00B8FF"/>
<path d="M570.278 359.563L596.174 314.694L684.862 366.023L657.795 410.109L570.278 359.563Z" fill="#00B8FF"/>
<path d="M590.323 370.284L536.531 341.527L689.139 253.388L689.874 312.788L590.323 370.284Z" fill="#00B8FF"/>
<path d="M518.899 211.147V149.536L579.14 116.587L629.435 145.604L518.899 211.147Z" fill="#00B8FF"/>
<path d="M476.181 335.527L450.285 290.658L573.904 219.262L599.8 264.13L476.181 335.527Z" fill="#00B8FF"/>
<path d="M602.441 232.693L573.904 219.262L599.8 264.13L602.441 232.693Z" fill="#00B8FF"/>
<path d="M448.224 398.287L500.251 368.238L587.014 418.888L559.572 462.324L448.224 398.287Z" fill="#00B8FF"/>
<path d="M500.256 368.251L448.23 398.299L449.8 287.29L500.249 321.626L500.256 368.251Z" fill="#00B8FF"/>
<path d="M391.418 287.506L391.418 227.411L502.531 291.855L476.635 336.723L391.418 287.506Z" fill="#00B8FF"/>
<path d="M693 181.713L640.973 211.761L555.756 162.544L581.651 117.676L693 181.713Z" fill="#00B8FF"/>
<path d="M640.693 211.147L692.719 181.1L689.102 291.211L637.311 291.211L640.693 211.147Z" fill="#00B8FF"/>
<path d="M475.239 77.8763L452.061 124.315L364.543 73.7686L366.372 15L475.239 77.8763Z" fill="#00B8FF"/>
<path d="M366.372 15L365.953 73.8531C365.953 73.8531 250.12 140.775 247.878 140.784C245.636 140.793 221.982 95.9157 221.982 95.9157L366.372 15Z" fill="#00B8FF"/>
<path d="M502.549 203.085L502.685 261.529L316.711 154.119L364.948 123.613L502.549 203.085Z" fill="#00B8FF"/>
<path d="M502.571 226.617L452.043 226.617L451.701 64.2823L502.571 93.6622V226.617Z" fill="#00B8FF"/>
<path d="M273.72 198.28H221.928L222.021 95.7824L273.72 97.1882V198.28Z" fill="#00B8FF"/>
<path d="M272.979 175.554L274.98 236.534L122.371 148.394L173.428 118.058L272.979 175.554Z" fill="#00B8FF"/>
<path d="M172.845 314.765L118.542 345.417L58.9397 312.09L58.9126 254.009L172.845 314.765Z" fill="#00B8FF"/>
<path d="M299.96 291.817L274.064 336.685L150.445 265.289L176.341 220.421L299.96 291.817Z" fill="#00B8FF"/>
<path d="M147.804 233.851L150.445 265.289L176.341 220.421L147.804 233.851Z" fill="#00B8FF"/>
<path d="M368.271 284.657L316.244 254.609L316.711 154.119L368.035 156.174L368.271 284.657Z" fill="#00B8FF"/>
<path d="M316.252 254.598L368.278 284.645L271.391 338.789L275.892 277.917L316.252 254.598Z" fill="#00B8FF"/>
<path d="M300.769 389.26L248.743 419.307L248.977 290.825H300.769V389.26Z" fill="#00B8FF"/>
<path d="M58.3903 180.887L110.418 210.936L110.418 309.371L58.6263 309.371L58.3903 180.887Z" fill="#00B8FF"/>
<path d="M110.026 211.485L58 181.437L155.134 129.515L181.03 174.383L110.026 211.485Z" fill="#00B8FF"/>
<path d="M317 251H367V284H317V251Z" fill="#00B8FF"/>
<path d="M452 364H499V400H452V364Z" fill="#00B8FF"/>
<path d="M302 420H313V474H302V420Z" fill="#00B8FF"/>
<path d="M171.887 222.712L176.203 225.215L154.818 262.085L150.503 259.582L171.887 222.712Z" fill="#00B8FF"/>
<path d="M598.958 259.709L594.661 262.244L573 225.535L577.297 223L598.958 259.709Z" fill="#00B8FF"/>
</svg>
